<svg xmlns="http://www.w3.org/2000/svg" viewBox="0 0 512 512" width="512" height="512" role="img" aria-label="AgroVision leaf">
  <defs>
    <radialGradient id="bg" cx="50%" cy="38%" r="75%">
      <stop offset="0%" stop-color="#0b3324"/>
      <stop offset="100%" stop-color="#061a15"/>
    </radialGradient>
    <linearGradient id="leaf" x1="256" y1="96" x2="256" y2="416" gradientUnits="userSpaceOnUse">
      <stop offset="0%" stop-color="#cff45b"/>
      <stop offset="55%" stop-color="#67dd8e"/>
      <stop offset="100%" stop-color="#0a3c26"/>
    </linearGradient>
    <linearGradient id="vein" x1="256" y1="96" x2="256" y2="416" gradientUnits="userSpaceOnUse">
      <stop offset="0%" stop-color="#ffffff" stop-opacity="0.85"/>
      <stop offset="60%" stop-color="#cff45b" stop-opacity="0.55"/>
      <stop offset="100%" stop-color="#67dd8e" stop-opacity="0.2"/>
    </linearGradient>
  </defs>
  <rect width="512" height="512" rx="112" fill="url(#bg)"/>
  <g transform="translate(0,8)">
    <path d="M256 104
             C 322 152, 392 240, 372 332
             C 354 412, 296 432, 256 456
             C 216 432, 158 412, 140 332
             C 120 240, 190 152, 256 104 Z"
          fill="url(#leaf)"/>
    <path d="M256 104 L256 452" stroke="url(#vein)" stroke-width="9" stroke-linecap="round"/>
    <path d="M256 178 Q 206 150 156 188" stroke="url(#vein)" stroke-width="6.5" stroke-linecap="round" fill="none"/>
    <path d="M256 250 Q 196 222 150 280" stroke="url(#vein)" stroke-width="6" stroke-linecap="round" fill="none"/>
    <path d="M256 322 Q 206 308 168 358" stroke="url(#vein)" stroke-width="5" stroke-linecap="round" fill="none"/>
    <path d="M256 178 Q 306 150 356 188" stroke="url(#vein)" stroke-width="6.5" stroke-linecap="round" fill="none"/>
    <path d="M256 250 Q 316 222 362 280" stroke="url(#vein)" stroke-width="6" stroke-linecap="round" fill="none"/>
    <path d="M256 322 Q 306 308 344 358" stroke="url(#vein)" stroke-width="5" stroke-linecap="round" fill="none"/>
  </g>
</svg>
